PathFileType	4	(X/Y/Z)	D:\TRACE\v60_Jaco2_6-2-23\BothDRS_Motion2_6-platform.trc
DataRate	CameraRate	NumFrames	NumMarkers	Units	OrigDataRate	OrigDataStartFrame	OrigNumFrames
100.00	100.00	      42	5	mm	100.00	938	      7500
Frame#	Time	Left_Front			Right_Front			Left_Aft			Right_Aft			Post			
		X1	Y1	Z1	X2	Y2	Z2	X3	Y3	Z3	X4	Y4	Z4	X5	Y5	Z5	

938	9.370	-837.12964	-1.25795	-640.83038	732.99164	-0.23926	-646.36169	-744.83948	15.11349	494.45505	697.26105	14.52504	503.04828	-51.21967	1292.48987	-984.21118	
939	9.380	-838.03027	-2.75215	-641.32806	732.08252	-1.66053	-646.53302	-745.79840	16.21144	494.05496	696.15704	15.30601	502.69452	-51.91356	1290.42603	-987.19788	
940	9.390	-838.93683	-4.08796	-641.51721	731.31720	-2.83179	-646.88538	-746.69519	17.00134	493.76602	695.02313	16.40071	502.27496	-52.86270	1288.29724	-990.52740	
941	9.400	-839.52026	-5.36835	-641.74860	730.37982	-4.45395	-647.24036	-747.47925	17.67249	493.51871	694.41626	17.36839	501.88635	-53.57667	1286.35657	-993.62244	
942	9.410	-840.60712	-6.72437	-642.19330	729.59924	-5.54999	-647.20129	-748.59576	18.71803	493.05365	693.36432	18.02043	501.60236	-54.27412	1284.17249	-996.58350	
943	9.420	-841.26086	-8.14050	-642.45062	728.62427	-7.07615	-647.72015	-748.95563	19.44974	492.89890	692.63397	18.95766	501.21674	-55.33247	1282.25842	-999.56995	
944	9.430	-842.08533	-9.69971	-642.63672	727.79993	-8.36672	-648.11914	-749.73303	20.36382	492.57941	692.02570	20.00904	500.93649	-55.95152	1279.99878	-1002.30035	
945	9.440	-842.90680	-10.52032	-642.99384	727.48212	-9.35281	-648.20776	-750.78326	21.49950	492.26697	691.38092	21.04888	500.74631	-56.73151	1278.30005	-1004.96582	
946	9.450	-843.76636	-12.09116	-643.23969	726.39398	-11.05435	-648.64581	-751.40607	22.22535	491.99823	690.46271	21.89796	500.28970	-57.35544	1276.10449	-1007.58173	
947	9.460	-844.46295	-13.53495	-643.45087	725.67206	-12.26753	-648.90033	-751.97198	22.73503	491.74496	689.87408	22.94694	499.92426	-58.07988	1274.11560	-1010.13385	
948	9.470	-845.05475	-14.76624	-643.83203	725.00958	-13.49808	-649.10822	-752.77728	23.68837	491.43509	689.33057	23.82164	499.56912	-58.71824	1271.96265	-1012.86139	
949	9.480	-845.63477	-16.07647	-644.16168	724.32434	-14.91807	-649.49426	-753.25208	24.50778	491.27203	688.35083	24.54678	499.16760	-59.47979	1270.18091	-1015.51190	
950	9.490	-846.22595	-17.48058	-644.11841	724.08759	-16.04398	-649.30151	-754.19257	26.25901	490.23785	687.73230	25.59156	498.91052	-60.22154	1267.98132	-1018.12561	
951	9.500	-846.88495	-18.64849	-644.70282	723.01300	-17.48615	-649.97406	-754.72668	26.96603	489.66714	687.33362	26.65817	498.65466	-60.82137	1266.14465	-1020.83398	
952	9.510	-847.72437	-19.89648	-644.74579	722.34100	-18.50404	-650.10175	-755.34216	27.75304	489.42480	686.92200	27.44309	498.40054	-61.59175	1264.18640	-1023.50836	
953	9.520	-848.06696	-21.34194	-645.01862	722.02795	-20.06419	-650.47888	-755.82733	28.50293	489.04730	686.19458	28.28661	497.85214	-62.45480	1262.10962	-1026.54382	
954	9.530	-848.66644	-22.52557	-645.25684	721.60645	-21.00354	-650.68341	-756.53040	29.30774	488.72443	685.56818	29.10128	497.56116	-62.58404	1260.29065	-1029.27661	
955	9.540	-849.02679	-23.34645	-645.45367	721.08917	-22.23711	-650.92834	-756.97296	30.21935	488.25449	685.08893	29.88141	497.29834	-62.73529	1258.59290	-1031.85535	
956	9.550	-849.48773	-24.67349	-645.67102	720.78302	-23.42778	-650.97015	-757.24048	30.91905	488.17261	684.93286	30.76893	497.03745	-63.37405	1256.66223	-1034.58240	
957	9.560	-849.76215	-25.47654	-645.92108	720.02594	-24.63690	-651.41504	-757.62323	31.65364	487.73950	684.48969	31.63340	496.76688	-63.68907	1254.79639	-1037.06799	
958	9.570	-850.14972	-26.53260	-646.18463	719.80762	-25.32813	-651.58966	-757.93030	32.36432	487.58813	684.03265	32.40627	496.50580	-64.20337	1253.07678	-1039.59131	
959	9.580	-850.56610	-28.08241	-646.43158	719.54388	-26.98421	-651.78210	-758.42273	33.19783	487.17172	683.56738	33.24201	496.00229	-64.89005	1251.03149	-1042.06409	
960	9.590	-850.73743	-29.71346	-646.54083	719.34949	-28.55294	-651.89484	-758.71930	33.92330	486.86346	683.30054	34.05060	495.76868	-64.83934	1249.42810	-1044.19568	
961	9.600	-850.95367	-30.84157	-646.88562	719.14703	-29.43334	-652.24017	-758.68268	34.68634	486.46338	682.99316	34.74397	495.33282	-64.83658	1247.35571	-1046.43494	
962	9.610	-851.11432	-31.47553	-647.06439	718.98389	-30.46228	-652.47485	-758.97302	35.54044	486.13196	683.08948	35.71739	495.18280	-65.15322	1245.53284	-1048.84070	
963	9.620	-851.13519	-32.59981	-647.16461	718.76782	-31.61217	-652.73999	-759.22064	36.48841	485.72174	682.96539	36.38689	494.86807	-65.20093	1243.64990	-1051.24121	
964	9.630	-851.29132	-33.74412	-647.15497	718.93018	-32.73465	-652.84058	-759.08093	36.75439	485.96185	682.46375	37.07097	494.55243	-65.31795	1242.25916	-1053.43933	
965	9.640	-851.15155	-34.67752	-647.44397	718.96741	-33.36115	-653.03479	-759.26868	37.71906	485.54263	682.89453	37.83767	494.14423	-65.63016	1240.81970	-1055.72498	
966	9.650	-851.16052	-35.81843	-647.83124	718.75409	-34.40269	-653.26428	-759.38916	38.55793	485.27951	682.77405	38.49966	493.89920	-65.58096	1239.19299	-1057.98682	
967	9.660	-851.15222	-36.89047	-647.82098	718.81396	-35.65346	-653.38019	-759.29279	39.23705	485.05109	682.68127	38.95448	493.65878	-65.63687	1237.08899	-1060.52734	
968	9.670	-851.09424	-37.43650	-647.85724	718.99554	-36.65392	-653.47443	-759.14728	39.47521	484.70981	682.71674	39.72579	493.51181	-65.25844	1236.15002	-1061.55151	
969	9.680	-851.06012	-38.43894	-648.04987	718.86090	-37.35244	-653.82635	-759.59241	40.47799	484.43188	682.86414	40.37061	493.26245	-65.18633	1234.48242	-1063.70349	
970	9.690	-850.86371	-39.42533	-648.22534	718.84363	-38.05911	-653.80170	-759.13898	40.78543	484.06613	682.89819	41.05360	493.05258	-65.47850	1233.33105	-1065.64038	
971	9.700	-850.98383	-40.02315	-648.41534	719.23297	-38.98349	-653.84607	-758.76971	41.54146	483.66296	682.77051	41.65881	492.69949	-65.39666	1231.85498	-1067.69299	
972	9.710	-850.74707	-41.02939	-648.63226	719.59106	-40.01463	-654.12512	-758.05988	41.56377	483.47266	683.71576	42.31575	492.32590	-64.87658	1230.39966	-1069.00208	
973	9.720	-850.73639	-41.28640	-648.68048	719.91510	-40.72706	-654.13660	-757.87439	42.09307	483.21082	684.14996	42.92331	492.20642	-64.63381	1228.90723	-1070.61938	
974	9.730	-850.43646	-42.38321	-648.72772	720.27509	-41.74434	-654.23969	-757.87616	43.04902	483.02747	684.36639	43.62749	491.92191	-64.00430	1227.45422	-1072.11682	
975	9.740	-850.03796	-43.24229	-648.63690	720.65228	-42.53297	-654.40057	-757.29919	43.58444	482.78284	684.68481	44.04816	491.75510	-63.66081	1226.03296	-1074.07068	
976	9.750	-849.69293	-44.03236	-648.62061	720.88422	-43.34031	-654.72137	-757.06610	44.19067	482.49289	685.05798	44.70292	491.52069	-63.68746	1224.90674	-1075.61145	
977	9.760	-848.97760	-44.84629	-648.98749	721.38147	-43.85325	-654.70557	-756.49817	44.63348	482.43558	685.45117	45.22182	491.24219	-63.56964	1223.83374	-1076.84265	
978	9.770	-848.49359	-45.59647	-649.17786	721.59039	-44.68013	-654.81146	-756.22687	44.95619	482.21625	685.64240	45.56367	491.11252	-62.74086	1222.63733	-1078.25708	
979	9.780	-848.31073	-46.38788	-649.56976	721.86890	-45.35387	-654.94574	-755.97113	45.31599	481.98721	686.28271	46.07615	490.81003	-62.12725	1221.21460	-1079.82935	
